<?xml version="1.0" standalone="no"?>
<!DOCTYPE svg PUBLIC "-//W3C//DTD SVG 20010904//EN"
 "http://www.w3.org/TR/2001/REC-SVG-20010904/DTD/svg10.dtd">
<svg version="1.0" xmlns="http://www.w3.org/2000/svg"
 width="28.000000pt" height="36.000000pt" viewBox="0 0 28.000000 36.000000"
 preserveAspectRatio="xMidYMid meet">
<metadata>
Created by potrace 1.15, written by Peter Selinger 2001-2017
</metadata>
<g transform="translate(0.000000,36.000000) scale(0.100000,-0.100000)"
fill="#000000" stroke="none">
<path d="M93 304 c-29 -31 -33 -43 -33 -89 0 -37 -6 -60 -20 -78 -11 -14 -20
-35 -20 -46 0 -19 6 -21 55 -21 54 0 55 -1 49 -25 -5 -21 -3 -25 16 -25 19 0
21 4 16 25 -6 24 -5 25 49 25 50 0 55 2 55 22 0 12 -8 30 -17 40 -11 12 -18
42 -21 81 -4 54 -9 66 -38 95 -18 17 -39 32 -46 32 -7 0 -28 -17 -45 -36z"/>
</g>
</svg>
