<?xml version="1.0" encoding="utf-8"?>
<svg xmlns="http://www.w3.org/2000/svg" height="32" width="32" viewBox="0 0 32 32">
  <g>
    <path id="path1" transform="rotate(0,16,16) translate(1.6,1.6) scale(0.9,0.9)  " fill="#000000" d="M10,24L20,24 20,26 10,26z M10,20L22,20 22,22 10,22z M8,18L8,30 24,30 24,18z M28,10.400009C27.100006,10.400009 26.400024,11.100006 26.400024,12 26.400024,12.900009 27.100006,13.600006 28,13.600006 28.900024,13.600006 29.600006,12.900009 29.600006,12 29.600006,11.100006 28.900024,10.400009 28,10.400009z M2,8L30,8C31.100006,8,32,8.9000092,32,10L32,22C32,23.100006,31.100006,24,30,24L26,24 26,30C26,31.100006,25.100006,32,24,32L8,32C6.9000244,32,6,31.100006,6,30L6,24 2,24C0.90002441,24,0,23.100006,0,22L0,10C0,8.9000092,0.90002441,8,2,8z M8,0L24,0C25.100006,0,26,0.90000916,26,2L26,6 24,6 24,2 8,2 8,6 6,6 6,2C6,0.90000916,6.9000244,0,8,0z" />
  </g>
</svg>